# xmcd CD database file generated by freedbAccess_ocx
#
# Track frame offsets:
#       150
#       20981
#       46624
#       65175
#       84608
#       104829
#       126589
#       128204
#       145756
#       147883
#       167827
#       169173
#       190077
#       194129
#
# Disc length: 2890 seconds
#
# Revision: 0
# Processed by: cddbd v1.5PL3 Copyright (c) Steve Scherf et al.
# Submitted via: CDnGo 1.95
#
DISCID=df0b480e
DTITLE=Omar Cunningham - Hell at the house
DYEAR=2003
DGENRE=Blues
TTITLE0=Hell at the house
TTITLE1=Baby don't leave me
TTITLE2=Check to check
TTITLE3=Wastin' my time
TTITLE4=231
TTITLE5=Older Love
TTITLE6=Interlude
TTITLE7=Used and Abused
TTITLE8=Interlude
TTITLE9=Half feat. Sir Charles
TTITLE10=Interlude
TTITLE11=Hell at the house - Down Home mix
TTITLE12=Interlude
TTITLE13=What makes a man
EXTD=
EXTT0=
EXTT1=
EXTT2=
EXTT3=
EXTT4=
EXTT5=
EXTT6=
EXTT7=
EXTT8=
EXTT9=
EXTT10=
EXTT11=
EXTT12=
EXTT13=
PLAYORDER=
